<svg width="771" height="200" viewBox="0 0 771 200" fill="none" xmlns="http://www.w3.org/2000/svg">
<g clip-path="url(#clip0_3051_101)">
<g filter="url(#filter0_i_3051_101)">
<path d="M747.013 0H23.9867C10.7392 0 0 12.536 0 28V172C0 187.464 10.7392 200 23.9867 200H747.013C760.261 200 771 187.464 771 172V28C771 12.536 760.261 0 747.013 0Z" fill="white" fill-opacity="0.06"/>
<path d="M747.013 0H23.9867C10.7392 0 0 12.536 0 28V172C0 187.464 10.7392 200 23.9867 200H747.013C760.261 200 771 187.464 771 172V28C771 12.536 760.261 0 747.013 0Z" fill="url(#paint0_linear_3051_101)"/>
<g opacity="0.95">
<path d="M136 117.957C145.917 117.957 153.957 109.917 153.957 100C153.957 90.0829 145.917 82.0435 136 82.0435C126.083 82.0435 118.043 90.0829 118.043 100C118.043 109.917 126.083 117.957 136 117.957Z" fill="white" stroke="white" stroke-width="6" stroke-linecap="round"/>
<path d="M136 123.087C168.585 123.087 195 112.751 195 100C195 87.2494 168.585 76.913 136 76.913C103.415 76.913 77 87.2494 77 100C77 112.751 103.415 123.087 136 123.087Z" stroke="white" stroke-width="6" stroke-linecap="round"/>
<path d="M116.006 111.543C132.299 139.763 154.458 157.471 165.5 151.096C176.542 144.72 172.286 116.676 155.994 88.4565C139.701 60.2373 117.542 42.5292 106.5 48.9045C95.4577 55.2798 99.7137 83.3242 116.006 111.543Z" stroke="white" stroke-width="6" stroke-linecap="round"/>
<path d="M155.994 111.543C172.286 83.3242 176.542 55.2798 165.5 48.9045C154.458 42.5292 132.299 60.2373 116.006 88.4565C99.7137 116.676 95.4577 144.72 106.5 151.096C117.542 157.471 139.701 139.763 155.994 111.543Z" stroke="white" stroke-width="6" stroke-linecap="round"/>
</g>
</g>
<path d="M256.994 107L263.756 66.2727H279.824C282.9 66.2727 285.432 66.8163 287.42 67.9034C289.422 68.9905 290.828 70.535 291.636 72.5369C292.458 74.5256 292.651 76.8722 292.213 79.5767C291.762 82.2812 290.788 84.6013 289.29 86.5369C287.805 88.4725 285.869 89.964 283.483 91.0114C281.11 92.0455 278.359 92.5625 275.23 92.5625H264.472L265.665 85.642H275.011C276.655 85.642 278.061 85.4167 279.227 84.9659C280.394 84.5152 281.315 83.839 281.991 82.9375C282.681 82.036 283.132 80.9157 283.344 79.5767C283.569 78.2112 283.49 77.071 283.105 76.1562C282.721 75.2282 282.025 74.5256 281.017 74.0483C280.009 73.5578 278.684 73.3125 277.04 73.3125H271.233L265.605 107H256.994ZM282.051 88.4659L289.111 107H279.605L272.764 88.4659H282.051ZM307.262 107.597C304.133 107.597 301.541 106.96 299.487 105.688C297.432 104.402 295.987 102.585 295.151 100.239C294.329 97.8788 294.19 95.0881 294.734 91.8665C295.264 88.7244 296.331 85.9669 297.935 83.5938C299.553 81.2206 301.581 79.3712 304.021 78.0455C306.46 76.7197 309.178 76.0568 312.174 76.0568C314.189 76.0568 316.012 76.3816 317.643 77.0312C319.287 77.6676 320.652 78.6354 321.739 79.9347C322.826 81.2206 323.569 82.8314 323.967 84.767C324.378 86.7027 324.371 88.9697 323.947 91.5682L323.569 93.8949H297.796L298.612 88.6449H316.43C316.629 87.4252 316.549 86.3447 316.191 85.4034C315.833 84.4621 315.237 83.7263 314.401 83.196C313.566 82.6525 312.539 82.3807 311.319 82.3807C310.073 82.3807 308.906 82.6856 307.819 83.2955C306.732 83.9053 305.817 84.7074 305.075 85.7017C304.345 86.6828 303.875 87.75 303.663 88.9034L302.728 94.1136C302.463 95.7178 302.516 97.0502 302.887 98.1108C303.272 99.1714 303.934 99.9669 304.876 100.497C305.817 101.014 307.01 101.273 308.455 101.273C309.397 101.273 310.278 101.14 311.1 100.875C311.935 100.61 312.678 100.219 313.327 99.7017C313.977 99.1714 314.507 98.5152 314.918 97.733L322.654 98.25C321.938 100.133 320.851 101.777 319.393 103.182C317.934 104.574 316.178 105.661 314.123 106.443C312.081 107.212 309.794 107.597 307.262 107.597ZM335.575 107.577C333.64 107.577 331.963 107.239 330.544 106.562C329.139 105.873 328.105 104.852 327.442 103.5C326.779 102.148 326.613 100.471 326.945 98.4688C327.236 96.7718 327.786 95.3532 328.595 94.2131C329.417 93.0597 330.418 92.1316 331.598 91.429C332.778 90.7263 334.084 90.1894 335.516 89.8182C336.961 89.447 338.452 89.1951 339.99 89.0625C341.767 88.8769 343.212 88.6979 344.325 88.5256C345.452 88.3532 346.294 88.108 346.851 87.7898C347.408 87.4583 347.746 86.9678 347.865 86.3182V86.1989C348.064 84.9527 347.832 83.9848 347.169 83.2955C346.519 82.5928 345.479 82.2415 344.047 82.2415C342.536 82.2415 341.25 82.5729 340.189 83.2358C339.142 83.8987 338.393 84.7405 337.942 85.7614L330.226 85.125C330.915 83.2689 331.956 81.6648 333.348 80.3125C334.753 78.947 336.444 77.8996 338.419 77.1705C340.394 76.428 342.608 76.0568 345.061 76.0568C346.758 76.0568 348.342 76.2557 349.814 76.6534C351.299 77.0511 352.578 77.6676 353.652 78.5028C354.739 79.3381 355.521 80.4119 355.999 81.7244C356.489 83.0237 356.589 84.5814 356.297 86.3977L352.857 107H344.822L345.538 102.764H345.3C344.65 103.719 343.855 104.561 342.913 105.29C341.972 106.006 340.892 106.569 339.672 106.98C338.452 107.378 337.087 107.577 335.575 107.577ZM338.976 101.73C340.209 101.73 341.342 101.485 342.376 100.994C343.424 100.491 344.286 99.8144 344.962 98.9659C345.651 98.1174 346.089 97.1562 346.274 96.0824L346.791 92.8409C346.526 93.0133 346.142 93.1657 345.638 93.2983C345.147 93.4309 344.61 93.5568 344.027 93.6761C343.457 93.7822 342.88 93.8816 342.297 93.9744C341.714 94.054 341.19 94.1335 340.726 94.2131C339.705 94.3589 338.79 94.5909 337.982 94.9091C337.173 95.2273 336.517 95.6581 336.013 96.2017C335.509 96.732 335.197 97.3949 335.078 98.1903C334.893 99.3438 335.164 100.225 335.893 100.835C336.636 101.432 337.663 101.73 338.976 101.73ZM373.151 107.597C370.009 107.597 367.423 106.934 365.395 105.608C363.38 104.269 361.968 102.413 361.159 100.04C360.364 97.6667 360.224 94.9356 360.741 91.8466C361.245 88.7178 362.299 85.9735 363.903 83.6136C365.508 81.2405 367.543 79.3911 370.009 78.0653C372.488 76.7263 375.272 76.0568 378.361 76.0568C381.026 76.0568 383.279 76.5407 385.122 77.5085C386.965 78.4763 388.317 79.8352 389.179 81.5852C390.041 83.3352 390.332 85.3902 390.054 87.75H382.08C382.093 86.2386 381.702 85.0123 380.906 84.071C380.111 83.1297 378.944 82.6591 377.406 82.6591C376.08 82.6591 374.861 83.017 373.747 83.733C372.647 84.4356 371.712 85.4631 370.943 86.8153C370.188 88.1676 369.657 89.8049 369.352 91.7273C369.034 93.6761 369.027 95.3333 369.332 96.6989C369.637 98.0644 370.221 99.1051 371.082 99.821C371.944 100.537 373.031 100.895 374.344 100.895C375.325 100.895 376.233 100.696 377.068 100.298C377.917 99.9006 378.659 99.3239 379.295 98.5682C379.932 97.7992 380.422 96.8778 380.767 95.804H388.761C388.218 98.1506 387.23 100.205 385.798 101.969C384.38 103.732 382.597 105.111 380.449 106.105C378.301 107.099 375.868 107.597 373.151 107.597ZM413.634 76.4545L412.58 82.8182H394.165L395.239 76.4545H413.634ZM400.609 69.1364H409.08L404.347 97.6136C404.215 98.3958 404.235 99.0057 404.407 99.4432C404.579 99.8674 404.864 100.166 405.262 100.338C405.673 100.51 406.164 100.597 406.734 100.597C407.131 100.597 407.536 100.563 407.947 100.497C408.358 100.418 408.669 100.358 408.881 100.318L409.2 106.622C408.722 106.768 408.079 106.927 407.271 107.099C406.475 107.272 405.534 107.378 404.447 107.418C402.379 107.497 400.629 107.225 399.197 106.602C397.765 105.966 396.737 104.991 396.114 103.679C395.491 102.366 395.359 100.716 395.717 98.7273L400.609 69.1364Z" fill="black"/>
<path d="M467.009 78.1051C467.076 76.4479 466.592 75.1686 465.558 74.267C464.537 73.3655 462.992 72.9148 460.924 72.9148C459.519 72.9148 458.299 73.1136 457.265 73.5114C456.231 73.8958 455.402 74.4328 454.779 75.1222C454.169 75.7983 453.791 76.5805 453.646 77.4688C453.5 78.1979 453.546 78.8343 453.785 79.3778C454.037 79.9214 454.428 80.392 454.958 80.7898C455.502 81.1742 456.145 81.5123 456.887 81.804C457.629 82.0824 458.418 82.321 459.254 82.5199L462.754 83.3949C464.464 83.7926 466.002 84.3229 467.367 84.9858C468.746 85.6487 469.899 86.464 470.827 87.4318C471.769 88.3996 472.432 89.5398 472.816 90.8523C473.201 92.1648 473.254 93.6695 472.975 95.3665C472.551 97.8589 471.563 100.02 470.012 101.849C468.461 103.666 466.426 105.078 463.907 106.085C461.388 107.08 458.471 107.577 455.157 107.577C451.869 107.577 449.092 107.073 446.825 106.065C444.558 105.058 442.907 103.566 441.873 101.591C440.852 99.6023 440.547 97.143 440.958 94.2131H449.29C449.145 95.5786 449.344 96.7187 449.887 97.6335C450.444 98.535 451.272 99.2178 452.373 99.6818C453.473 100.133 454.766 100.358 456.251 100.358C457.722 100.358 459.028 100.146 460.168 99.7216C461.322 99.2973 462.256 98.7074 462.972 97.9517C463.688 97.196 464.126 96.3277 464.285 95.3466C464.444 94.4318 464.305 93.6629 463.867 93.0398C463.43 92.4167 462.727 91.8864 461.759 91.4489C460.805 90.9981 459.618 90.6004 458.2 90.2557L453.944 89.142C450.656 88.3068 448.17 87.0009 446.487 85.2244C444.803 83.4479 444.2 81.0549 444.677 78.0455C445.101 75.5795 446.129 73.4252 447.759 71.5824C449.403 69.7263 451.471 68.2879 453.964 67.267C456.469 66.233 459.207 65.7159 462.177 65.7159C465.2 65.7159 467.752 66.2396 469.833 67.2869C471.915 68.321 473.433 69.7661 474.387 71.6222C475.342 73.4782 475.633 75.6392 475.262 78.1051H467.009ZM485.31 107.577C483.374 107.577 481.697 107.239 480.278 106.562C478.873 105.873 477.839 104.852 477.176 103.5C476.513 102.148 476.348 100.471 476.679 98.4688C476.971 96.7718 477.521 95.3532 478.33 94.2131C479.152 93.0597 480.152 92.1316 481.332 91.429C482.512 90.7263 483.818 90.1894 485.25 89.8182C486.695 89.447 488.187 89.1951 489.724 89.0625C491.501 88.8769 492.946 88.6979 494.06 88.5256C495.187 88.3532 496.028 88.108 496.585 87.7898C497.142 87.4583 497.48 86.9678 497.599 86.3182V86.1989C497.798 84.9527 497.566 83.9848 496.903 83.2955C496.254 82.5928 495.213 82.2415 493.781 82.2415C492.27 82.2415 490.984 82.5729 489.923 83.2358C488.876 83.8987 488.127 84.7405 487.676 85.7614L479.96 85.125C480.65 83.2689 481.69 81.6648 483.082 80.3125C484.488 78.947 486.178 77.8996 488.153 77.1705C490.129 76.428 492.343 76.0568 494.795 76.0568C496.492 76.0568 498.077 76.2557 499.548 76.6534C501.033 77.0511 502.313 77.6676 503.386 78.5028C504.473 79.3381 505.256 80.4119 505.733 81.7244C506.223 83.0237 506.323 84.5814 506.031 86.3977L502.591 107H494.557L495.273 102.764H495.034C494.384 103.719 493.589 104.561 492.648 105.29C491.706 106.006 490.626 106.569 489.406 106.98C488.187 107.378 486.821 107.577 485.31 107.577ZM488.71 101.73C489.943 101.73 491.077 101.485 492.111 100.994C493.158 100.491 494.02 99.8144 494.696 98.9659C495.385 98.1174 495.823 97.1562 496.009 96.0824L496.526 92.8409C496.26 93.0133 495.876 93.1657 495.372 93.2983C494.882 93.4309 494.345 93.5568 493.761 93.6761C493.191 93.7822 492.615 93.8816 492.031 93.9744C491.448 94.054 490.924 94.1335 490.46 94.2131C489.439 94.3589 488.525 94.5909 487.716 94.9091C486.907 95.2273 486.251 95.6581 485.747 96.2017C485.243 96.732 484.932 97.3949 484.812 98.1903C484.627 99.3438 484.899 100.225 485.628 100.835C486.37 101.432 487.398 101.73 488.71 101.73ZM520.618 89.3409L517.675 107H509.223L514.314 76.4545H522.368L521.493 81.8438H521.831C522.799 80.054 524.164 78.642 525.928 77.608C527.704 76.5739 529.726 76.0568 531.993 76.0568C534.114 76.0568 535.884 76.5208 537.303 77.4489C538.734 78.3769 539.742 79.696 540.325 81.4062C540.922 83.1165 541.021 85.1648 540.624 87.5511L537.362 107H528.891L531.893 89.0625C532.198 87.1932 531.96 85.7348 531.178 84.6875C530.409 83.6269 529.169 83.0966 527.459 83.0966C526.319 83.0966 525.271 83.3419 524.317 83.8324C523.362 84.3229 522.56 85.0388 521.911 85.9801C521.274 86.9081 520.843 88.0284 520.618 89.3409ZM555.215 107.497C552.882 107.497 550.873 106.901 549.19 105.707C547.519 104.501 546.326 102.731 545.61 100.398C544.907 98.0511 544.841 95.1742 545.411 91.767C545.995 88.267 547.042 85.357 548.553 83.0369C550.065 80.7036 551.854 78.9602 553.923 77.8068C555.991 76.6402 558.145 76.0568 560.386 76.0568C562.083 76.0568 563.455 76.3485 564.502 76.9318C565.563 77.5019 566.378 78.2178 566.948 79.0795C567.518 79.928 567.916 80.7633 568.141 81.5852H568.4L570.965 66.2727H579.417L572.656 107H564.303L565.119 102.108H564.761C564.23 102.956 563.528 103.798 562.653 104.634C561.791 105.455 560.744 106.138 559.511 106.682C558.291 107.225 556.859 107.497 555.215 107.497ZM558.954 100.756C560.306 100.756 561.526 100.384 562.613 99.642C563.7 98.8864 564.615 97.8324 565.357 96.4801C566.1 95.1278 566.617 93.5436 566.908 91.7273C567.213 89.911 567.22 88.3333 566.928 86.9943C566.637 85.6553 566.067 84.6212 565.218 83.892C564.383 83.1629 563.276 82.7983 561.897 82.7983C560.505 82.7983 559.272 83.1761 558.198 83.9318C557.138 84.6875 556.256 85.7348 555.553 87.0739C554.864 88.4129 554.373 89.964 554.082 91.7273C553.79 93.5038 553.77 95.0748 554.022 96.4403C554.274 97.7926 554.811 98.8532 555.633 99.6222C556.455 100.378 557.562 100.756 558.954 100.756ZM579.76 107L586.521 66.2727H594.993L592.487 81.5852H592.726C593.23 80.7633 593.906 79.928 594.754 79.0795C595.616 78.2178 596.67 77.5019 597.916 76.9318C599.162 76.3485 600.641 76.0568 602.351 76.0568C604.578 76.0568 606.534 76.6402 608.217 77.8068C609.901 78.9602 611.114 80.7036 611.857 83.0369C612.599 85.357 612.679 88.267 612.095 91.767C611.538 95.1742 610.511 98.0511 609.013 100.398C607.528 102.731 605.745 104.501 603.663 105.707C601.595 106.901 599.401 107.497 597.081 107.497C595.437 107.497 594.085 107.225 593.024 106.682C591.977 106.138 591.161 105.455 590.578 104.634C589.995 103.798 589.577 102.956 589.325 102.108H588.908L588.112 107H579.76ZM590.598 91.7273C590.306 93.5436 590.3 95.1278 590.578 96.4801C590.87 97.8324 591.427 98.8864 592.249 99.642C593.084 100.384 594.178 100.756 595.53 100.756C596.922 100.756 598.155 100.378 599.229 99.6222C600.316 98.8532 601.217 97.7926 601.933 96.4403C602.649 95.0748 603.153 93.5038 603.445 91.7273C603.723 89.964 603.73 88.4129 603.464 87.0739C603.199 85.7348 602.656 84.6875 601.834 83.9318C601.012 83.1761 599.898 82.7983 598.493 82.7983C597.127 82.7983 595.901 83.1629 594.814 83.892C593.74 84.6212 592.839 85.6553 592.109 86.9943C591.393 88.3333 590.89 89.911 590.598 91.7273ZM629.043 107.597C625.928 107.597 623.349 106.934 621.308 105.608C619.266 104.269 617.827 102.413 616.992 100.04C616.17 97.6534 616.018 94.8759 616.535 91.7074C617.039 88.5786 618.086 85.8409 619.677 83.4943C621.268 81.1477 623.29 79.3248 625.742 78.0256C628.195 76.7131 630.959 76.0568 634.035 76.0568C637.137 76.0568 639.709 76.7263 641.751 78.0653C643.792 79.3911 645.231 81.2472 646.066 83.6335C646.901 86.0199 647.06 88.7973 646.543 91.9659C646.026 95.0814 644.966 97.8125 643.362 100.159C641.757 102.506 639.736 104.335 637.296 105.648C634.857 106.947 632.106 107.597 629.043 107.597ZM629.879 101.034C631.31 101.034 632.576 100.63 633.677 99.821C634.79 98.9991 635.712 97.8854 636.441 96.4801C637.183 95.0616 637.701 93.4574 637.992 91.6676C638.284 89.9044 638.304 88.34 638.052 86.9744C637.8 85.5956 637.27 84.5085 636.461 83.7131C635.665 82.9176 634.572 82.5199 633.18 82.5199C631.748 82.5199 630.475 82.9309 629.362 83.7528C628.248 84.5616 627.326 85.6752 626.597 87.0938C625.868 88.5123 625.358 90.1231 625.066 91.9261C624.788 93.6761 624.768 95.2405 625.006 96.6193C625.245 97.9848 625.769 99.0653 626.577 99.8608C627.386 100.643 628.487 101.034 629.879 101.034ZM660.623 76.4545L664.441 87.1335L671.978 76.4545H680.668L669.273 91.7273L675.816 107H667.165L662.89 96.4403L655.214 107H646.464L658.077 91.7273L651.873 76.4545H660.623Z" fill="#F8FAFC"/>
<path d="M257.009 145V124.636H270.253V127.729H260.697V133.257H269.567V136.349H260.697V141.908H270.332V145H257.009ZM277.099 124.636L281.583 132.094H281.742L286.246 124.636H290.452L284.178 134.818L290.552 145H286.276L281.742 137.592H281.583L277.049 145H272.793L279.227 134.818L272.873 124.636H277.099ZM293.348 145V124.636H300.985C302.549 124.636 303.862 124.928 304.922 125.511C305.989 126.095 306.795 126.897 307.338 127.918C307.889 128.932 308.164 130.085 308.164 131.378C308.164 132.684 307.889 133.844 307.338 134.858C306.788 135.872 305.976 136.671 304.902 137.254C303.828 137.831 302.506 138.119 300.935 138.119H295.874V135.087H300.438C301.353 135.087 302.102 134.928 302.685 134.609C303.268 134.291 303.699 133.854 303.978 133.297C304.263 132.74 304.405 132.1 304.405 131.378C304.405 130.655 304.263 130.019 303.978 129.469C303.699 128.919 303.265 128.491 302.675 128.186C302.092 127.875 301.339 127.719 300.418 127.719H297.037V145H293.348ZM311.368 145V124.636H324.612V127.729H315.057V133.257H323.926V136.349H315.057V141.908H324.692V145H311.368ZM328.376 145V124.636H336.012C337.576 124.636 338.889 124.908 339.95 125.452C341.017 125.995 341.822 126.758 342.366 127.739C342.916 128.713 343.191 129.85 343.191 131.149C343.191 132.455 342.913 133.589 342.356 134.55C341.806 135.504 340.994 136.243 339.92 136.767C338.846 137.284 337.527 137.543 335.962 137.543H330.523V134.48H335.465C336.38 134.48 337.129 134.354 337.712 134.102C338.296 133.844 338.727 133.469 339.005 132.979C339.29 132.482 339.433 131.872 339.433 131.149C339.433 130.427 339.29 129.81 339.005 129.3C338.72 128.783 338.286 128.392 337.702 128.126C337.119 127.855 336.367 127.719 335.445 127.719H332.065V145H328.376ZM338.896 135.773L343.937 145H339.82L334.869 135.773H338.896ZM350.276 124.636V145H346.587V124.636H350.276ZM354.27 124.636H358.784L364.83 139.392H365.069L371.114 124.636H375.628V145H372.088V131.01H371.9L366.272 144.94H363.627L357.999 130.98H357.81V145H354.27V124.636ZM379.645 145V124.636H392.89V127.729H383.334V133.257H392.203V136.349H383.334V141.908H392.969V145H379.645ZM413.387 124.636V145H410.106L400.511 131.129H400.342V145H396.653V124.636H399.954L409.539 138.517H409.718V124.636H413.387ZM416.512 127.729V124.636H432.759V127.729H426.465V145H422.806V127.729H416.512ZM447.778 139.193C446.976 139.193 446.244 138.998 445.581 138.607C444.918 138.209 444.388 137.679 443.99 137.016C443.599 136.353 443.403 135.62 443.403 134.818C443.403 134.009 443.599 133.277 443.99 132.621C444.388 131.958 444.918 131.431 445.581 131.04C446.244 130.642 446.976 130.443 447.778 130.443C448.587 130.443 449.32 130.642 449.976 131.04C450.639 131.431 451.166 131.958 451.557 132.621C451.955 133.277 452.153 134.009 452.153 134.818C452.153 135.62 451.955 136.353 451.557 137.016C451.166 137.679 450.639 138.209 449.976 138.607C449.32 138.998 448.587 139.193 447.778 139.193ZM463.673 145V124.636H471.468C472.94 124.636 474.163 124.868 475.137 125.332C476.118 125.79 476.851 126.416 477.335 127.212C477.825 128.007 478.07 128.909 478.07 129.916C478.07 130.745 477.911 131.454 477.593 132.044C477.275 132.627 476.847 133.101 476.31 133.466C475.773 133.83 475.174 134.092 474.511 134.251V134.45C475.233 134.49 475.926 134.712 476.589 135.116C477.258 135.514 477.805 136.078 478.229 136.807C478.654 137.536 478.866 138.418 478.866 139.452C478.866 140.506 478.611 141.454 478.1 142.295C477.59 143.131 476.821 143.79 475.793 144.274C474.766 144.758 473.473 145 471.915 145H463.673ZM467.362 141.918H471.329C472.668 141.918 473.632 141.662 474.222 141.152C474.819 140.635 475.117 139.972 475.117 139.163C475.117 138.56 474.968 138.017 474.67 137.533C474.371 137.042 473.947 136.658 473.397 136.379C472.847 136.094 472.191 135.952 471.428 135.952H467.362V141.918ZM467.362 133.297H471.011C471.647 133.297 472.22 133.181 472.731 132.949C473.241 132.71 473.642 132.375 473.934 131.945C474.232 131.507 474.381 130.99 474.381 130.393C474.381 129.605 474.103 128.955 473.546 128.445C472.996 127.934 472.177 127.679 471.09 127.679H467.362V133.297ZM494.912 124.636H498.6V137.94C498.6 139.399 498.256 140.681 497.566 141.788C496.884 142.895 495.922 143.76 494.683 144.384C493.443 145 491.995 145.308 490.338 145.308C488.674 145.308 487.222 145 485.983 144.384C484.743 143.76 483.782 142.895 483.099 141.788C482.416 140.681 482.075 139.399 482.075 137.94V124.636H485.764V137.632C485.764 138.481 485.949 139.236 486.321 139.899C486.699 140.562 487.229 141.082 487.912 141.46C488.594 141.831 489.403 142.017 490.338 142.017C491.272 142.017 492.081 141.831 492.764 141.46C493.453 141.082 493.984 140.562 494.355 139.899C494.726 139.236 494.912 138.481 494.912 137.632V124.636ZM506.299 124.636V145H502.61V124.636H506.299ZM510.294 145V124.636H513.983V141.908H522.951V145H510.294ZM533.054 145H526.153V124.636H533.193C535.215 124.636 536.951 125.044 538.403 125.859C539.861 126.668 540.982 127.831 541.764 129.349C542.546 130.867 542.937 132.684 542.937 134.798C542.937 136.92 542.543 138.742 541.754 140.267C540.972 141.792 539.842 142.962 538.363 143.777C536.892 144.592 535.122 145 533.054 145ZM529.842 141.808H532.875C534.293 141.808 535.476 141.55 536.424 141.033C537.372 140.509 538.085 139.73 538.562 138.696C539.039 137.655 539.278 136.356 539.278 134.798C539.278 133.241 539.039 131.948 538.562 130.92C538.085 129.886 537.379 129.114 536.444 128.604C535.516 128.087 534.363 127.828 532.984 127.828H529.842V141.808ZM558.329 139.193C557.527 139.193 556.795 138.998 556.132 138.607C555.469 138.209 554.939 137.679 554.541 137.016C554.15 136.353 553.954 135.62 553.954 134.818C553.954 134.009 554.15 133.277 554.541 132.621C554.939 131.958 555.469 131.431 556.132 131.04C556.795 130.642 557.527 130.443 558.329 130.443C559.138 130.443 559.87 130.642 560.527 131.04C561.19 131.431 561.717 131.958 562.108 132.621C562.505 133.277 562.704 134.009 562.704 134.818C562.704 135.62 562.505 136.353 562.108 137.016C561.717 137.679 561.19 138.209 560.527 138.607C559.87 138.998 559.138 139.193 558.329 139.193ZM574.223 145V124.636H581.86C583.424 124.636 584.737 124.928 585.797 125.511C586.864 126.095 587.67 126.897 588.213 127.918C588.764 128.932 589.039 130.085 589.039 131.378C589.039 132.684 588.764 133.844 588.213 134.858C587.663 135.872 586.851 136.671 585.777 137.254C584.703 137.831 583.381 138.119 581.81 138.119H576.749V135.087H581.313C582.228 135.087 582.977 134.928 583.56 134.609C584.143 134.291 584.574 133.854 584.853 133.297C585.138 132.74 585.28 132.1 585.28 131.378C585.28 130.655 585.138 130.019 584.853 129.469C584.574 128.919 584.14 128.491 583.55 128.186C582.967 127.875 582.214 127.719 581.293 127.719H577.912V145H574.223ZM592.243 145V124.636H595.932V141.908H604.901V145H592.243ZM611.483 145H607.545L614.714 124.636H619.268L626.447 145H622.51L617.071 128.812H616.912L611.483 145ZM611.612 137.016H622.351V139.979H611.612V137.016ZM625.659 124.636H629.826L634.807 133.645H635.006L639.988 124.636H644.154L636.746 137.403V145H633.067V137.403L625.659 124.636Z" fill="white" fill-opacity="0.8"/>
</g>
<defs>
<filter id="filter0_i_3051_101" x="0" y="0" width="771" height="206" filterUnits="userSpaceOnUse" color-interpolation-filters="sRGB">
<feFlood flood-opacity="0" result="BackgroundImageFix"/>
<feBlend mode="normal" in="SourceGraphic" in2="BackgroundImageFix" result="shape"/>
<feColorMatrix in="SourceAlpha" type="matrix" values="0 0 0 0 0 0 0 0 0 0 0 0 0 0 0 0 0 0 127 0" result="hardAlpha"/>
<feOffset dy="6"/>
<feGaussianBlur stdDeviation="12"/>
<feComposite in2="hardAlpha" operator="arithmetic" k2="-1" k3="1"/>
<feColorMatrix type="matrix" values="0 0 0 0 0 0 0 0 0 0 0 0 0 0 0 0 0 0 0.18 0"/>
<feBlend mode="normal" in2="shape" result="effect1_innerShadow_3051_101"/>
</filter>
<linearGradient id="paint0_linear_3051_101" x1="0" y1="0" x2="97.2194" y2="374.781" gradientUnits="userSpaceOnUse">
<stop stop-color="#0EA5E9"/>
<stop offset="1" stop-color="#8B5CF6"/>
</linearGradient>
<clipPath id="clip0_3051_101">
<rect width="771" height="200" fill="white"/>
</clipPath>
</defs>
</svg>
